<svg xmlns="http://www.w3.org/2000/svg" xmlns:xlink="http://www.w3.org/1999/xlink" width="40" height="40" viewBox="0 0 40 40">
    <defs>
        <path id="a" d="M18.385 3l-.87 3.548-2.277 9.291-7.826-3.42-2.857-1.268 1.076 2.957 3.52 9.502-6.667 2.281L0 26.736l2.153 1.52 7.95 5.702 1.491-2.239-5.797-4.139 5.466-1.858 1.325-.422-.497-1.31-2.898-7.855 6.418 2.787 1.449.634.373-1.52 1.78-7.265L22.9 18.29l.62 1.225 1.16-.592 7.33-3.716-3.81 8.7-.621 1.351 1.408.465 5.714 1.943-4.886 4.266L31.51 34l6.708-5.828L40 26.652l-2.236-.761-6.584-2.238L35.9 12.84l1.491-3.464-3.27 1.69-9.442 4.814L20 6.294 18.385 3zM20 17.782l-1.2 8.025-3.976-4.055 2.65 6.758h-5.3l5.3 2.703-3.975 2.703h14.576l-3.976-2.703 5.3-2.703h-5.3l2.65-6.758-5.3 4.055L20 17.782z"/>
    </defs>
    <use fill="#000" fill-rule="nonzero" xlink:href="#a"/>
</svg>
